<svg width="32" height="32" viewBox="0 0 32 32" fill="none" xmlns="http://www.w3.org/2000/svg">
<path fill-rule="evenodd" clip-rule="evenodd" d="M16 17.8377L10.2183 23.6194C9.71087 24.1269 8.88808 24.1269 8.38061 23.6194C7.87313 23.1119 7.87313 22.2891 8.38061 21.7817L14.1623 16L8.38061 10.2183C7.87313 9.71087 7.87313 8.88808 8.38061 8.38061C8.88808 7.87313 9.71087 7.87313 10.2183 8.38061L16 14.1623L21.7817 8.38061C22.2891 7.87313 23.1119 7.87313 23.6194 8.38061C24.1269 8.88808 24.1269 9.71087 23.6194 10.2183L17.8377 16L23.6194 21.7817C24.1269 22.2891 24.1269 23.1119 23.6194 23.6194C23.1119 24.1269 22.2891 24.1269 21.7817 23.6194L16 17.8377Z" fill="#D8D8D8"/>
</svg>
